<svg width="266" height="167" viewBox="0 0 266 167" fill="none" xmlns="http://www.w3.org/2000/svg">
<path d="M127.932 57.5693C89.072 57.5693 57.5703 89.0717 57.5703 127.931H198.295C198.294 89.0717 166.792 57.5693 127.932 57.5693Z" fill="#EFF2FA"/>
<path d="M217.483 127.931H255.863C255.863 57.3876 198.472 0 127.932 0V38.3797C177.312 38.3797 217.483 78.552 217.483 127.931Z" fill="#FFB473"/>
<path d="M38.3797 127.931H0C0 57.3876 57.3905 0 127.931 0V38.3797C78.5513 38.3797 38.3797 78.552 38.3797 127.931Z" fill="#FFE182"/>
<path d="M0 127.931H38.3797C38.3797 103.241 48.4227 80.853 64.6381 64.6377L37.513 37.5127C14.348 60.6777 0 92.6598 0 127.931Z" fill="#C3E678"/>
<path d="M191.432 61.2689C209.996 78.1265 221.493 101.401 221.493 127.069H265.432C265.432 90.401 249.006 57.152 222.486 33.0693L191.432 61.2689Z" fill="#FF6464"/>
<path d="M127.931 15.0693C65.7988 15.0693 15.4316 65.6617 15.4316 128.069H240.432C240.43 65.6617 190.063 15.0693 127.931 15.0693Z" fill="white"/>
<path d="M108.793 143.479C107.42 143.158 106.182 142.265 105.403 140.878C103.844 138.103 104.711 134.401 107.34 132.607L226.819 61.595C229.448 59.8009 229.967 61.3677 229.967 61.3677C229.967 61.3677 230.052 62.7747 227.423 64.5688L112.985 142.654C111.67 143.551 110.165 143.801 108.793 143.479Z" fill="#11047A"/>
<path d="M127.932 140.724C134.997 140.724 140.725 134.996 140.725 127.931C140.725 120.865 134.997 115.138 127.932 115.138C120.866 115.138 115.139 120.865 115.139 127.931C115.139 134.996 120.866 140.724 127.932 140.724Z" fill="#5B5D6E"/>
</svg>
