<svg width="56" height="56" viewBox="0 0 56 56" fill="none" xmlns="http://www.w3.org/2000/svg">
<circle cx="28" cy="28" r="28" fill="#F4F7FE"/>
<path fill-rule="evenodd" clip-rule="evenodd" d="M24.939 18C22.2517 18 20.0732 20.1785 20.0732 22.8659C20.0732 25.5532 22.2517 27.7317 24.939 27.7317C27.6264 27.7317 29.8049 25.5532 29.8049 22.8659C29.8049 20.1785 27.6264 18 24.939 18ZM21.6098 22.8659C21.6098 21.0271 23.1003 19.5366 24.939 19.5366C26.7777 19.5366 28.2683 21.0271 28.2683 22.8659C28.2683 24.7046 26.7777 26.1951 24.939 26.1951C23.1003 26.1951 21.6098 24.7046 21.6098 22.8659Z" fill="#4318FF"/>
<path d="M31.0854 19.0244C30.661 19.0244 30.3171 19.3684 30.3171 19.7927C30.3171 20.217 30.661 20.561 31.0854 20.561C32.3583 20.561 33.3902 21.5929 33.3902 22.8659C33.3902 24.1388 32.3583 25.1707 31.0854 25.1707C30.661 25.1707 30.3171 25.5147 30.3171 25.939C30.3171 26.3633 30.661 26.7073 31.0854 26.7073C33.2069 26.7073 34.9268 24.9874 34.9268 22.8659C34.9268 20.7443 33.2069 19.0244 31.0854 19.0244Z" fill="#4318FF"/>
<path fill-rule="evenodd" clip-rule="evenodd" d="M19.4874 30.5697C20.9209 29.7505 22.8499 29.2683 24.939 29.2683C27.0281 29.2683 28.9572 29.7505 30.3907 30.5697C31.8024 31.3764 32.878 32.6079 32.878 34.1341C32.878 35.6603 31.8024 36.8919 30.3907 37.6986C28.9572 38.5178 27.0281 39 24.939 39C22.8499 39 20.9209 38.5178 19.4874 37.6986C18.0756 36.8919 17 35.6603 17 34.1341C17 32.6079 18.0756 31.3764 19.4874 30.5697ZM20.2497 31.9038C19.0662 32.5801 18.5366 33.3973 18.5366 34.1341C18.5366 34.871 19.0662 35.6882 20.2497 36.3645C21.4115 37.0284 23.0678 37.4634 24.939 37.4634C26.8102 37.4634 28.4665 37.0284 29.6283 36.3645C30.8118 35.6882 31.3415 34.871 31.3415 34.1341C31.3415 33.3973 30.8118 32.5801 29.6283 31.9038C28.4665 31.2399 26.8102 30.8049 24.939 30.8049C23.0678 30.8049 21.4115 31.2399 20.2497 31.9038Z" fill="#4318FF"/>
<path d="M34.3231 30.3105C33.9086 30.2196 33.499 30.4819 33.4081 30.8964C33.3172 31.3109 33.5795 31.7205 33.994 31.8114C34.8057 31.9894 35.4543 32.2952 35.8825 32.6455C36.3112 32.9963 36.4634 33.3389 36.4634 33.622C36.4634 33.8788 36.3399 34.1803 35.9993 34.4967C35.6562 34.8154 35.1291 35.1098 34.4492 35.3145C34.0429 35.4369 33.8127 35.8654 33.9351 36.2717C34.0574 36.678 34.4859 36.9082 34.8922 36.7859C35.7349 36.5321 36.4883 36.1397 37.0451 35.6225C37.6043 35.103 38 34.4196 38 33.622C38 32.7361 37.5142 31.9953 36.8556 31.4563C36.1964 30.9169 35.3085 30.5266 34.3231 30.3105Z" fill="#4318FF"/>
</svg>
